<?xml version="1.0" standalone="no"?>
<!DOCTYPE svg PUBLIC "-//W3C//DTD SVG 20010904//EN"
 "http://www.w3.org/TR/2001/REC-SVG-20010904/DTD/svg10.dtd">
<svg height="252.000000pt" preserveAspectRatio="xMidYMid meet"
    viewBox="0 0 257.000000 252.000000" width="257.000000pt"
 xmlns="http://www.w3.org/2000/svg">
<metadata>
Created by potrace 1.16, written by Peter Selinger 2001-2019
</metadata>
<g fill="#000000"
stroke="none" transform="translate(0.000000,252.000000) scale(0.100000,-0.100000)">
<path d="M1360 2015 l0 -65 65 0 65 0 0 65 0 65 -65 0 -65 0 0 -65z"/>
<path d="M1760 1684 l0 -137 78 6 c151 10 265 100 307 245 l6 22 -195 0 -196
0 0 -136z"/>
<path d="M1421 405 l-64 -65 534 2 534 3 3 63 3 62 -473 0 -473 -1 -64 -64z"/>
<path d="M170 405 l0 -55 198 2 197 2 -195 6 -195 6 193 2 192 2 0 45 0 45
-195 0 -195 0 0 -55z"/>
</g>
</svg>
